<svg width="22" height="16" viewBox="0 0 22 16" fill="none" xmlns="http://www.w3.org/2000/svg">
<g clip-path="url(#clip0_125_903)">
<path d="M21 0H1C0.447715 0 0 0.447715 0 1C0 1.55228 0.447715 2 1 2H21C21.5523 2 22 1.55228 22 1C22 0.447715 21.5523 0 21 0Z" fill="white"/>
<path d="M21 7H1C0.447715 7 0 7.44772 0 8C0 8.55228 0.447715 9 1 9H21C21.5523 9 22 8.55228 22 8C22 7.44772 21.5523 7 21 7Z" fill="white"/>
<path d="M21 14H1C0.447715 14 0 14.4477 0 15C0 15.5523 0.447715 16 1 16H21C21.5523 16 22 15.5523 22 15C22 14.4477 21.5523 14 21 14Z" fill="white"/>
</g>
<defs>
<clipPath id="clip0_125_903">
<rect width="22" height="16" fill="white"/>
</clipPath>
</defs>
</svg>
