<svg width="128" height="28" viewBox="0 0 128 28" fill="none" xmlns="http://www.w3.org/2000/svg">
<g clip-path="url(#clip0_125_908)">
<path d="M1.4942 0H126.508C127.365 0 128.002 0.632155 128.002 1.48408V26.5134C128.002 27.3654 127.367 27.9975 126.508 27.9975H1.4942C0.63789 27.9975 0 27.3654 0 26.5134V1.48408C0 0.632155 0.635408 0 1.4942 0ZM14.8055 15.4606L14.808 16.4335C14.808 16.7002 15.0289 16.92 15.297 16.92H16.5206C20.338 16.92 22.8821 14.9248 22.8821 11.0306C22.8821 6.67219 20.3405 5.11403 16.5206 5.11403H9.05457C8.7865 5.11403 8.5656 5.3338 8.5656 5.60049V6.57342C8.5656 6.84011 8.7865 7.05988 9.05457 7.05988H16.5181C19.0871 7.05988 20.6781 7.98589 20.6781 11.0306C20.6781 13.7345 18.9406 14.9766 16.5181 14.9766H15.2945C15.0264 14.9766 14.8055 15.1964 14.8055 15.4631V15.4606ZM36.8313 14.9742V16.9225C36.8313 17.1892 37.0522 17.4089 37.3203 17.4089H39.5244C43.4659 17.4089 45.8859 15.1692 45.8859 11.2751C45.8859 6.91419 43.4659 5.1165 39.5244 5.1165H32.4282C32.1601 5.1165 31.9392 5.33627 31.9392 5.60296V7.54881C31.9392 7.8155 32.1601 8.03528 32.4282 8.03528H39.5244C41.1154 8.03528 42.4631 8.71929 42.4631 11.2751C42.4631 13.7345 40.9689 14.4877 39.5244 14.4877H37.3203C37.0522 14.4852 36.8313 14.705 36.8313 14.9742ZM55.6776 5.11403C51.9819 5.11403 48.8271 6.91419 48.8271 11.7615V16.0212C48.8271 20.4067 51.9819 22.644 55.6776 22.644H55.7993C56.0698 22.644 56.2882 22.4242 56.2882 22.1575V20.2117C56.2882 19.945 56.0673 19.7252 55.7993 19.7252H55.6776C53.0094 19.7252 52.2524 17.9966 52.2524 16.0236V11.7591C52.2524 9.44528 52.8655 8.03281 55.6776 8.03281H55.7993C56.0698 8.03281 56.2882 7.81303 56.2882 7.54634V5.60049C56.2882 5.3338 56.0673 5.11403 55.7993 5.11403H55.6776ZM58.3732 5.11403H58.2515C57.9835 5.11403 57.7626 5.3338 57.7626 5.60049V7.54634C57.7626 7.81303 57.9835 8.03281 58.2515 8.03281H58.3732C61.1878 8.03281 61.8009 9.44528 61.8009 11.7591V16.0212C61.8009 17.9942 61.0414 19.7227 58.3732 19.7227H58.2515C57.9835 19.7227 57.7626 19.9425 57.7626 20.2092V22.155C57.7626 22.4217 57.9835 22.6415 58.2515 22.6415H58.3732C62.069 22.6415 65.2237 20.4043 65.2237 16.0187V11.7591C65.2237 6.91419 62.069 5.11403 58.3732 5.11403ZM84.827 21.6933L79.9845 16.2632C81.8907 15.389 82.9679 13.6358 82.9679 11.0281C82.9679 6.66972 80.5479 5.11403 76.6064 5.11403H69.5102C69.2421 5.11403 69.0212 5.3338 69.0212 5.60049V7.54634C69.0212 7.81303 69.2421 8.03281 69.5102 8.03281H76.6064C78.1974 8.03281 79.5452 8.47235 79.5452 11.0306C79.5452 13.4901 78.051 14.0037 76.6064 14.0037H74.4023C74.1343 14.0037 73.9134 14.2235 73.9134 14.4902L73.9158 16.436C73.9158 16.7027 74.1367 16.9225 74.4048 16.9225H76.1174L81.1337 22.4983C81.2081 22.5946 81.3298 22.644 81.4514 22.644H84.5589C84.827 22.644 85.0479 22.4736 85.0479 22.1822C85.0479 21.9377 84.9734 21.8637 84.827 21.6933ZM86.5148 8.03281H99.975C100.246 8.03281 100.464 7.81303 100.464 7.54634V5.60049C100.464 5.3338 100.243 5.11403 99.975 5.11403H86.5148C86.2467 5.11403 86.0258 5.3338 86.0258 5.60049V7.54634C86.0258 7.81303 86.2467 8.03281 86.5148 8.03281ZM109.521 5.11403C105.825 5.11403 102.671 6.91419 102.671 11.7591V16.0212C102.671 20.4043 105.825 22.6415 109.521 22.6415H109.643C109.911 22.6415 110.132 22.4217 110.132 22.155V20.2092C110.132 19.9425 109.911 19.7227 109.643 19.7227H109.521C106.853 19.7227 106.093 17.9942 106.093 16.0212V11.7591C106.093 9.44528 106.706 8.03281 109.521 8.03281H109.643C109.911 8.03281 110.132 7.81303 110.132 7.54634V5.60049C110.132 5.3338 109.911 5.11403 109.643 5.11403H109.521ZM112.217 5.11403H112.095C111.827 5.11403 111.606 5.3338 111.606 5.60049V7.54634C111.606 7.81303 111.827 8.03281 112.095 8.03281H112.217C115.031 8.03281 115.642 9.44528 115.642 11.7591V16.0212C115.642 17.9942 114.882 19.7227 112.217 19.7227H112.095C111.827 19.7227 111.606 19.9425 111.606 20.2092V22.155C111.606 22.4217 111.827 22.6415 112.095 22.6415H112.217C115.912 22.6415 119.067 20.4043 119.067 16.0212V11.7591C119.067 6.91172 115.912 5.11403 112.217 5.11403ZM10.6456 22.6415H11.8667C12.1348 22.6415 12.3557 22.4217 12.3557 22.155V9.9836C12.3557 9.71691 12.1348 9.49713 11.8667 9.49713H10.6456C10.3775 9.49713 10.1566 9.71691 10.1566 9.9836V22.155C10.1566 22.4242 10.3775 22.6415 10.6456 22.6415ZM32.4282 22.6415H34.873C35.1411 22.6415 35.362 22.4217 35.362 22.155V9.9836C35.362 9.71691 35.1411 9.49713 34.873 9.49713H32.4282C32.1601 9.49713 31.9392 9.71691 31.9392 9.9836V22.155C31.9392 22.4242 32.1601 22.6415 32.4282 22.6415ZM69.5077 22.6415H71.9525C72.2206 22.6415 72.4415 22.4217 72.4415 22.155V9.9836C72.4415 9.71691 72.2206 9.49713 71.9525 9.49713H69.5077C69.2396 9.49713 69.0187 9.71691 69.0187 9.9836V22.155C69.0187 22.4242 69.2396 22.6415 69.5077 22.6415ZM94.4698 9.49713H92.025C91.7569 9.49713 91.536 9.71691 91.536 9.9836V22.155C91.536 22.4217 91.7569 22.6415 92.025 22.6415H94.4698C94.7379 22.6415 94.9588 22.4217 94.9588 22.155V9.9836C94.9588 9.71444 94.7403 9.49713 94.4698 9.49713ZM24.2274 22.7403C25.3046 22.7403 26.1585 21.8884 26.1585 20.8167C26.1585 19.7474 25.3022 18.8955 24.2274 18.8955C23.1527 18.8955 22.2964 19.7474 22.2964 20.8167C22.2964 21.8884 23.1527 22.7403 24.2274 22.7403Z" fill="white"/>
</g>
<defs>
<clipPath id="clip0_125_908">
<rect width="128" height="28" fill="white"/>
</clipPath>
</defs>
</svg>
