<svg width="128" height="29" viewBox="0 0 128 29" fill="none" xmlns="http://www.w3.org/2000/svg">
<g clip-path="url(#clip0_125_910)">
<path d="M1.4942 0H126.508C127.365 0 128.002 0.635408 128.002 1.49172V26.6499C128.002 27.5062 127.367 28.1416 126.508 28.1416H1.4942C0.63789 28.1416 0 27.5062 0 26.6499V1.49172C0 0.635408 0.635408 0 1.4942 0ZM14.8055 15.5402L14.808 16.5181C14.808 16.7862 15.0289 17.0071 15.297 17.0071H16.5206C20.338 17.0071 22.8821 15.0016 22.8821 11.0874C22.8821 6.70653 20.3405 5.14035 16.5206 5.14035H9.05457C8.7865 5.14035 8.5656 5.36126 8.5656 5.62932V6.60725C8.5656 6.87531 8.7865 7.09622 9.05457 7.09622H16.5181C19.0871 7.09622 20.6781 8.02699 20.6781 11.0874C20.6781 13.8052 18.9406 15.0537 16.5181 15.0537H15.2945C15.0264 15.0537 14.8055 15.2746 14.8055 15.5427V15.5402ZM36.8313 15.0512V17.0096C36.8313 17.2776 37.0522 17.4985 37.3203 17.4985H39.5244C43.4659 17.4985 45.8859 15.2473 45.8859 11.3331C45.8859 6.94978 43.4659 5.14283 39.5244 5.14283H32.4282C32.1601 5.14283 31.9392 5.36374 31.9392 5.6318V7.58767C31.9392 7.85573 32.1601 8.07663 32.4282 8.07663H39.5244C41.1154 8.07663 42.4631 8.76416 42.4631 11.3331C42.4631 13.8052 40.9689 14.5623 39.5244 14.5623H37.3203C37.0522 14.5598 36.8313 14.7807 36.8313 15.0512ZM55.6776 5.14035C51.9819 5.14035 48.8271 6.94978 48.8271 11.8221V16.1036C48.8271 20.5118 51.9819 22.7605 55.6776 22.7605H55.7993C56.0698 22.7605 56.2882 22.5396 56.2882 22.2716V20.3157C56.2882 20.0476 56.0673 19.8267 55.7993 19.8267H55.6776C53.0094 19.8267 52.2524 18.0893 52.2524 16.1061V11.8196C52.2524 9.49389 52.8655 8.07415 55.6776 8.07415H55.7993C56.0698 8.07415 56.2882 7.85325 56.2882 7.58518V5.62932C56.2882 5.36126 56.0673 5.14035 55.7993 5.14035H55.6776ZM58.3732 5.14035H58.2515C57.9835 5.14035 57.7626 5.36126 57.7626 5.62932V7.58518C57.7626 7.85325 57.9835 8.07415 58.2515 8.07415H58.3732C61.1878 8.07415 61.8009 9.49389 61.8009 11.8196V16.1036C61.8009 18.0868 61.0414 19.8242 58.3732 19.8242H58.2515C57.9835 19.8242 57.7626 20.0451 57.7626 20.3132V22.2691C57.7626 22.5371 57.9835 22.758 58.2515 22.758H58.3732C62.069 22.758 65.2237 20.5093 65.2237 16.1011V11.8196C65.2237 6.94978 62.069 5.14035 58.3732 5.14035ZM84.827 21.8049L79.9845 16.3469C81.8907 15.4682 82.9679 13.706 82.9679 11.0849C82.9679 6.70405 80.5479 5.14035 76.6064 5.14035H69.5102C69.2421 5.14035 69.0212 5.36126 69.0212 5.62932V7.58518C69.0212 7.85325 69.2421 8.07415 69.5102 8.07415H76.6064C78.1974 8.07415 79.5452 8.51596 79.5452 11.0874C79.5452 13.5595 78.051 14.0758 76.6064 14.0758H74.4023C74.1343 14.0758 73.9134 14.2967 73.9134 14.5647L73.9158 16.5206C73.9158 16.7887 74.1367 17.0096 74.4048 17.0096H76.1174L81.1337 22.6141C81.2081 22.7109 81.3298 22.7605 81.4514 22.7605H84.5589C84.827 22.7605 85.0479 22.5893 85.0479 22.2964C85.0479 22.0506 84.9734 21.9762 84.827 21.8049ZM86.5148 8.07415H99.975C100.246 8.07415 100.464 7.85325 100.464 7.58518V5.62932C100.464 5.36126 100.243 5.14035 99.975 5.14035H86.5148C86.2467 5.14035 86.0258 5.36126 86.0258 5.62932V7.58518C86.0258 7.85325 86.2467 8.07415 86.5148 8.07415ZM109.521 5.14035C105.825 5.14035 102.671 6.94978 102.671 11.8196V16.1036C102.671 20.5093 105.825 22.758 109.521 22.758H109.643C109.911 22.758 110.132 22.5371 110.132 22.2691V20.3132C110.132 20.0451 109.911 19.8242 109.643 19.8242H109.521C106.853 19.8242 106.093 18.0868 106.093 16.1036V11.8196C106.093 9.49389 106.706 8.07415 109.521 8.07415H109.643C109.911 8.07415 110.132 7.85325 110.132 7.58518V5.62932C110.132 5.36126 109.911 5.14035 109.643 5.14035H109.521ZM112.217 5.14035H112.095C111.827 5.14035 111.606 5.36126 111.606 5.62932V7.58518C111.606 7.85325 111.827 8.07415 112.095 8.07415H112.217C115.031 8.07415 115.642 9.49389 115.642 11.8196V16.1036C115.642 18.0868 114.882 19.8242 112.217 19.8242H112.095C111.827 19.8242 111.606 20.0451 111.606 20.3132V22.2691C111.606 22.5371 111.827 22.758 112.095 22.758H112.217C115.912 22.758 119.067 20.5093 119.067 16.1036V11.8196C119.067 6.94729 115.912 5.14035 112.217 5.14035ZM10.6456 22.758H11.8667C12.1348 22.758 12.3557 22.5371 12.3557 22.2691V10.035C12.3557 9.76692 12.1348 9.54601 11.8667 9.54601H10.6456C10.3775 9.54601 10.1566 9.76692 10.1566 10.035V22.2691C10.1566 22.5396 10.3775 22.758 10.6456 22.758ZM32.4282 22.758H34.873C35.1411 22.758 35.362 22.5371 35.362 22.2691V10.035C35.362 9.76692 35.1411 9.54601 34.873 9.54601H32.4282C32.1601 9.54601 31.9392 9.76692 31.9392 10.035V22.2691C31.9392 22.5396 32.1601 22.758 32.4282 22.758ZM69.5077 22.758H71.9525C72.2206 22.758 72.4415 22.5371 72.4415 22.2691V10.035C72.4415 9.76692 72.2206 9.54601 71.9525 9.54601H69.5077C69.2396 9.54601 69.0187 9.76692 69.0187 10.035V22.2691C69.0187 22.5396 69.2396 22.758 69.5077 22.758ZM94.4698 9.54601H92.025C91.7569 9.54601 91.536 9.76692 91.536 10.035V22.2691C91.536 22.5371 91.7569 22.758 92.025 22.758H94.4698C94.7379 22.758 94.9588 22.5371 94.9588 22.2691V10.035C94.9588 9.76444 94.7403 9.54601 94.4698 9.54601ZM24.2274 22.8573C25.3046 22.8573 26.1585 22.001 26.1585 20.9238C26.1585 19.8491 25.3022 18.9927 24.2274 18.9927C23.1527 18.9927 22.2964 19.8491 22.2964 20.9238C22.2964 22.001 23.1527 22.8573 24.2274 22.8573Z" fill="#C84514"/>
</g>
<defs>
<clipPath id="clip0_125_910">
<rect width="128" height="28.1441" fill="white"/>
</clipPath>
</defs>
</svg>
